<?xml version="1.0" encoding="utf-8"?>
<!-- Generator: Adobe Illustrator 22.0.0, SVG Export Plug-In . SVG Version: 6.00 Build 0)  -->
<svg version="1.1" id="Слой_1" xmlns="http://www.w3.org/2000/svg" xmlns:xlink="http://www.w3.org/1999/xlink" x="0px" y="0px"
	 viewBox="0 0 1360 84" style="enable-background:new 0 0 1360 84;" xml:space="preserve">
<path fill="#161619" d="M64.7-76H50.9V29.7h13.8V-76z M64.7,46.1H50.9V99h13.8V46.1z M25.8,66.4c0-0.2,0-0.5,0-0.7
	C25.8,46.8,11.7,32-6.3,32v13.9C4,46.1,12.4,54.6,12.4,65.8c0,0.2,0,0.5,0,0.7L25.8,66.4L25.8,66.4z M110.1,19.1H96.3V72h13.8V19.1z
	 M121.6,57.9h-11.5V72h11.5V57.9z M599.1-2.4h-52.9v13.8h52.9V-2.4z M238.7,34.8h-13.8v52.9h13.8V34.8z M486.8,47.3h-52.9v13.8h52.9
	V47.3z M375.6,23.2h-14.1v25.4h14.1V23.2z M375.5,23.2H269.8V37h105.7V23.2z M162.9,57.4l-24.2,64.7h15.2l24.3-64.7H162.9z
	 M182.7,57.4h-11.5v14.1h11.5V57.4z M441.1-9.4l-64.7-24.2v15.2l64.7,24.2V-9.4z M441.1-1.1H427v11.5h14.1V-1.1z M234.1-63.7
	C216.4-63.7,202-48,202-28.6c0,18.9,14.1,33.7,32.1,33.7V-8.8c-10.3-0.2-18.7-8.7-18.7-19.9c0-11.6,8.7-21,18.7-21.3V-63.7z
	 M577.5,61.8c0-17.7-15.7-32.1-35.1-32.1c-18.9,0-33.7,14.1-33.7,32.1h13.9c0.2-10.3,8.7-18.7,19.9-18.7c11.6,0,21,8.7,21.3,18.7
	H577.5z M426.2,31.2c-0.2,0-0.5,0-0.7,0c-18.9,0-33.7,14.1-33.7,32.1h13.9c0.2-10.3,8.7-18.7,19.9-18.7c0.2,0,0.5,0,0.7,0
	L426.2,31.2L426.2,31.2z M637.6,62.8c0-0.2,0-0.5,0-0.7c0-18.9-14.1-33.7-32.1-33.7v13.9c10.3,0.2,18.7,8.7,18.7,19.9
	c0,0.2,0,0.5,0,0.7L637.6,62.8L637.6,62.8z M183.7,36.3c0-0.2,0-0.5,0-0.7c0-18.9-14.1-33.7-32.1-33.7v13.9
	c10.3,0.2,18.7,8.7,18.7,19.9c0,0.2,0,0.5,0,0.7L183.7,36.3L183.7,36.3z M304.2,69c-0.2,0-0.5,0-0.7,0c-18.9,0-33.7-14.1-33.7-32.1
	h13.9c0.2,10.3,8.7,18.7,19.9,18.7c0.2,0,0.5,0,0.7,0L304.2,69L304.2,69z M477.6,11.4c0.2,0,0.5,0,0.7,0c18.9,0,33.7-14.1,33.7-32.1
	h-13.9C497.9-10.4,489.5-2,478.3-2c-0.2,0-0.5,0-0.7,0V11.4z M1247.1-76h-13.8V29.7h13.8V-76z M1154.3-2.4h-52.9v13.8h52.9V-2.4z
	 M793.9,34.8h-13.8v52.9h13.8V34.8z M1041.9,47.3H989v13.8h52.9V47.3z M930.7,23.2h-14.1v25.4h14.1V23.2z M930.7,23.2H825V37h105.7
	V23.2z M718.1,57.4l-24.3,64.7h15.3l24.2-64.7H718.1z M737.8,57.4h-11.5v14.1h11.5V57.4z M996.2-9.4l-64.7-24.2v15.2l64.7,24.2V-9.4
	z M996.3-1.1h-14.1v11.5h14.1V-1.1z M789.2-63.7c-17.7,0-32.1,15.7-32.1,35.1c0,18.9,14.1,33.7,32.1,33.7V-8.8
	c-10.3-0.2-18.7-8.7-18.7-19.9c0-11.6,8.7-21,18.7-21.3V-63.7z M1132.7,61.8c0-17.7-15.7-32.1-35.1-32.1
	c-18.9,0-33.7,14.1-33.7,32.1h13.9c0.2-10.3,8.7-18.7,19.9-18.7c11.6,0,21,8.7,21.3,18.7H1132.7z M1247.1,46.1h-13.8V99h13.8V46.1z
	 M981.3,31.2c-0.2,0-0.5,0-0.7,0c-18.9,0-33.7,14.1-33.7,32.1h13.9c0.2-10.3,8.7-18.7,19.9-18.7c0.2,0,0.5,0,0.7,0V31.2H981.3z
	 M649.6,95.5c0.2,0,0.5,0,0.7,0c18.9,0,33.7-14.1,33.7-32.1h-13.9c-0.2,10.3-8.7,18.7-19.9,18.7c-0.2,0-0.5,0-0.7,0L649.6,95.5
	L649.6,95.5z M1208.2,66.4c0-0.2,0-0.5,0-0.7c0-18.9-14.1-33.7-32.1-33.7v13.9c10.3,0.2,18.7,8.7,18.7,19.9c0,0.2,0,0.5,0,0.7
	L1208.2,66.4L1208.2,66.4z M743.6,33.8c0-0.2,0-0.5,0-0.7c0-18.9-14.1-33.7-32.1-33.7v13.9c10.3,0.2,18.7,8.7,18.7,19.9
	c0,0.2,0,0.5,0,0.7L743.6,33.8L743.6,33.8z M859.4,69c-0.2,0-0.5,0-0.7,0C839.8,69,825,54.9,825,36.9h13.9
	c0.2,10.3,8.7,18.7,19.9,18.7c0.2,0,0.5,0,0.7,0L859.4,69L859.4,69z M1032.7,11.4c0.2,0,0.5,0,0.7,0c18.9,0,33.7-14.1,33.7-32.1
	h-13.9C1053-10.4,1044.5-2,1033.3-2c-0.2,0-0.5,0-0.7,0L1032.7,11.4L1032.7,11.4z M1292.5,19.1h-13.8V72h13.8V19.1z M1304,57.9
	h-11.5V72h11.5V57.9z M683.3-18.6h-13.8v52.9h13.8V-18.6z M1345.3,57.4l-24.2,64.7h15.2l24.3-64.7H1345.3z M1365.1,57.4h-11.5v14.1
	h11.5V57.4z M1366.1,36.3c0-0.2,0-0.5,0-0.7c0-18.9-14.1-33.7-32.1-33.7v13.9c10.3,0.2,18.7,8.7,18.7,19.9c0,0.2,0,0.5,0,0.7
	L1366.1,36.3L1366.1,36.3z"/>
</svg>
