<?xml version="1.0" encoding="utf-8"?>
<!-- Generator: Adobe Illustrator 22.0.0, SVG Export Plug-In . SVG Version: 6.00 Build 0)  -->
<svg version="1.1" id="Слой_1" xmlns="http://www.w3.org/2000/svg" xmlns:xlink="http://www.w3.org/1999/xlink" x="0px" y="0px"
	 viewBox="0 0 24 24" style="enable-background:new 0 0 24 24;" xml:space="preserve" fill-rule="evenodd" clip-rule="evenodd">
<path fill="#060608" d="M8,8V4h8v4H8z M18,3v5h1.5c1.4,0,2.5,1.1,2.5,2.5v7.2c0,0.7-0.6,1.2-1.2,1.2H18v2c0,0.6-0.4,1-1,1H7
	c-0.6,0-1-0.4-1-1v-2H3.2C2.6,19,2,18.4,2,17.8v-7.2C2,9.1,3.1,8,4.5,8H6V3c0-0.6,0.4-1,1-1h10C17.6,2,18,2.4,18,3z M20,17h-2v-2
	c0-0.6-0.4-1-1-1H7c-0.6,0-1,0.4-1,1v2H4v-6.5C4,10.2,4.2,10,4.5,10H6h12h1.5c0.3,0,0.5,0.2,0.5,0.5V17z M8,20v-4h8v4H8z M9,11
	c0.6,0,1,0.4,1,1s-0.4,1-1,1H7c-0.6,0-1-0.4-1-1s0.4-1,1-1H9z"/>
</svg>
