<?xml version="1.0" encoding="utf-8"?>
<!-- Generator: Adobe Illustrator 22.0.0, SVG Export Plug-In . SVG Version: 6.00 Build 0)  -->
<svg version="1.1" id="Слой_1" xmlns="http://www.w3.org/2000/svg" xmlns:xlink="http://www.w3.org/1999/xlink" x="0px" y="0px"
	 viewBox="0 0 24 24" style="enable-background:new 0 0 24 24;" xml:space="preserve" fill-rule="evenodd" clip-rule="evenodd">
<path fill="#15171B" d="M11,16c2.8,0,5-2.2,5-5c0-2.8-2.2-5-5-5c-2.8,0-5,2.2-5,5C6,13.8,8.2,16,11,16z M11,18c3.9,0,7-3.1,7-7
	c0-3.9-3.1-7-7-7c-3.9,0-7,3.1-7,7C4,14.9,7.1,18,11,18z"/>
<path fill="#15171B" d="M17,15.6l3,3c0.4,0.4,0.4,1,0,1.4c-0.4,0.4-1,0.4-1.4,0l-3-3l-0.1-1.5L17,15.6z"/>
</svg>
